<?xml version="1.0" standalone="no"?>
<!DOCTYPE svg PUBLIC "-//W3C//DTD SVG 20010904//EN" "http://www.w3.org/TR/2001/REC-SVG-20010904/DTD/svg10.dtd">
<svg version="1.0" xmlns="http://www.w3.org/2000/svg"
  width="512.000000pt" height="512.000000pt" viewBox="0 0 512.000000 512.000000"
  preserveAspectRatio="xMidYMid meet">

  <g transform="translate(0.000000,512.000000) scale(0.100000,-0.100000)"
    fill="#000000" stroke="none">
    <path
      d="M2440 5055 c-203 -50 -354 -196 -405 -395 -13 -48 -16 -91 -13 -162
l5 -98 -416 0 c-229 0 -443 -4 -475 -10 -128 -21 -234 -100 -289 -218 l-32
-67 -3 -754 c-2 -695 -1 -755 14 -772 10 -11 23 -19 31 -19 8 0 13 -12 13 -35
0 -19 -5 -35 -10 -35 -6 0 -19 -9 -30 -20 -28 -28 -29 -149 -2 -173 10 -10 24
-17 30 -17 7 0 12 -15 12 -35 0 -19 -4 -35 -10 -35 -6 0 -19 -9 -30 -20 -20
-20 -20 -33 -20 -914 0 -867 1 -896 20 -957 38 -120 129 -211 249 -249 62 -20
90 -20 1481 -20 1396 0 1419 0 1484 20 117 36 210 131 246 250 20 64 20 91 18
1925 l-3 1860 -32 67 c-55 118 -161 197 -289 218 -32 6 -246 10 -475 10 l-416
0 5 94 c6 111 -7 172 -55 275 -103 218 -368 343 -603 286z m225 -120 c233 -61
367 -302 296 -535 -20 -64 -21 -74 -7 -94 13 -21 24 -23 128 -29 128 -6 172
-20 211 -66 69 -82 53 -199 -36 -265 -28 -21 -34 -21 -697 -21 -663 0 -669 0
-697 21 -89 66 -105 183 -36 265 39 46 83 60 211 66 104 6 115 8 128 29 14 20
13 30 -7 94 -96 319 187 617 506 535z m-953 -1010 c33 -54 95 -100 161 -120
75 -22 1299 -22 1374 0 66 20 128 66 161 120 l27 44 119 1 c150 0 187 -11 253
-75 90 -88 84 52 81 -1696 l-3 -1534 -30 -54 c-30 -54 -61 -83 -125 -117 -34
-18 -81 -19 -1170 -19 -1089 0 -1136 1 -1170 19 -64 34 -95 63 -125 117 l-30
54 -3 1534 c-3 1748 -9 1608 81 1696 29 28 68 56 87 62 19 6 91 11 160 12
l125 0 27 -44z" />
    <path
      d="M1386 3388 c-22 -31 -20 -51 7 -76 19 -18 35 -22 85 -22 l62 0 2
-281 3 -282 26 -19 c23 -17 30 -18 50 -8 13 7 27 18 31 24 4 6 8 136 8 289 l0
277 65 0 c72 0 105 20 105 63 0 52 -20 57 -233 57 -191 0 -196 -1 -211 -22z" />
    <path
      d="M2017 3396 c-192 -69 -283 -317 -187 -512 122 -249 442 -248 568 1
51 102 50 232 -3 342 -33 66 -119 146 -181 167 -57 19 -145 20 -197 2z m160
-117 c34 -12 90 -64 109 -100 83 -159 -16 -362 -176 -361 -106 1 -186 87 -197
213 -16 167 126 300 264 248z" />
    <path
      d="M2617 3399 c-42 -25 -47 -65 -47 -344 0 -305 4 -325 67 -352 29 -12
56 -14 113 -9 96 9 165 42 224 107 62 68 76 118 76 259 0 110 -2 120 -30 178
-33 66 -76 109 -143 144 -33 17 -63 23 -142 25 -63 2 -107 -1 -118 -8z m206
-125 c83 -42 107 -91 107 -218 0 -105 -9 -138 -48 -179 -39 -41 -72 -56 -133
-59 l-54 -3 -3 238 -2 237 50 0 c28 0 65 -7 83 -16z" />
    <path
      d="M3327 3396 c-244 -88 -305 -441 -106 -620 150 -135 380 -91 476 91
59 110 65 214 21 331 -28 76 -122 172 -192 195 -59 20 -147 21 -199 3z m196
-136 c70 -48 113 -147 102 -235 -17 -143 -127 -231 -248 -200 -187 47 -211
355 -36 444 57 29 133 25 182 -9z" />
    <path
      d="M1552 2288 c-24 -31 -23 -57 2 -83 29 -29 43 -31 74 -9 26 18 30 65
6 88 -19 19 -68 21 -82 4z" />
    <path
      d="M1878 2289 c-12 -6 -18 -22 -18 -44 0 -69 -47 -65 863 -65 l818 0 25
25 c25 26 26 52 2 83 -13 16 -1663 17 -1690 1z" />
    <path d="M1562 1793 c-24 -10 -34 -53 -18 -79 34 -50 106 -33 106 26 0 47 -41
72 -88 53z" />
    <path
      d="M1878 1789 c-12 -6 -18 -22 -18 -44 0 -69 -47 -65 863 -65 l818 0 25
25 c25 26 26 52 2 83 -13 16 -1663 17 -1690 1z" />
    <path d="M1562 1293 c-24 -10 -34 -53 -18 -79 34 -50 106 -33 106 26 0 47 -41
72 -88 53z" />
    <path
      d="M1878 1289 c-12 -6 -18 -22 -18 -44 0 -69 -47 -65 863 -65 l818 0 25
25 c25 26 26 52 2 83 -13 16 -1663 17 -1690 1z" />
    <path d="M1544 775 c-21 -32 -7 -69 30 -87 55 -24 103 53 60 96 -25 25 -71 20
-90 -9z" />
    <path
      d="M1876 787 c-26 -19 -24 -67 4 -89 21 -17 66 -18 842 -18 l819 0 25
25 c25 26 26 52 2 83 -16 18 -1666 18 -1692 -1z" />
  </g>
</svg>