<?xml version="1.0" standalone="no"?>
<!DOCTYPE svg PUBLIC "-//W3C//DTD SVG 20010904//EN"
 "http://www.w3.org/TR/2001/REC-SVG-20010904/DTD/svg10.dtd">
<svg version="1.0" xmlns="http://www.w3.org/2000/svg"
 width="1024.000000pt" height="1024.000000pt" viewBox="0 0 1024.000000 1024.000000"
 preserveAspectRatio="xMidYMid meet">

<g transform="translate(0.000000,1024.000000) scale(0.100000,-0.100000)"
fill="#000000" stroke="none">
<path d="M3670 7819 c-284 -33 -571 -175 -791 -392 -216 -212 -361 -498 -398
-785 -6 -47 -11 -613 -13 -1472 -3 -1537 -6 -1445 59 -1660 125 -417 496 -788
906 -904 227 -65 108 -61 1682 -61 1339 0 1436 1 1519 18 279 57 507 179 707
377 163 163 266 329 339 549 79 235 75 135 74 1706 -1 1558 4 1438 -71 1685
-62 205 -171 386 -332 549 -146 149 -336 266 -541 334 -212 71 -120 67 -1669
66 -768 -1 -1430 -5 -1471 -10z m2820 -259 c138 -12 242 -40 369 -101 136 -64
207 -117 318 -233 131 -137 218 -294 274 -496 l24 -85 5 -1330 c3 -731 2
-1384 -2 -1450 -17 -287 -128 -545 -317 -736 -124 -124 -282 -216 -476 -276
l-90 -27 -1390 -6 c-764 -3 -1432 -2 -1484 2 -196 16 -375 85 -534 204 -259
194 -402 456 -438 799 -7 68 -7 538 -1 1475 9 1361 9 1376 31 1459 60 233 228
474 421 603 152 102 354 181 500 196 106 11 2663 12 2790 2z"/>
<path d="M4130 7146 c-14 -8 -49 -44 -79 -80 -29 -37 -56 -65 -60 -64 -3 2
-35 19 -71 38 -63 34 -68 35 -180 35 -107 0 -119 -2 -175 -29 -73 -36 -165
-126 -201 -198 -62 -122 -31 -306 70 -424 63 -74 238 -144 357 -144 56 0 150
32 196 67 36 28 133 178 152 236 21 61 15 158 -14 253 -5 16 4 29 41 59 98 80
114 102 114 150 0 35 -6 49 -31 74 -17 17 -36 31 -42 31 -7 0 -21 2 -32 5 -11
3 -31 -2 -45 -9z m-292 -246 c39 -24 41 -21 -58 -133 l-75 -85 -32 29 c-48 42
-136 62 -161 37 -26 -26 -20 1 10 43 64 91 130 128 228 129 38 0 65 -6 88 -20z
m142 -234 c0 -39 -18 -75 -61 -127 -43 -51 -90 -74 -143 -67 -28 3 -25 6 78
111 59 59 111 107 116 107 6 0 10 -11 10 -24z"/>
<path d="M4529 6828 c-46 -9 -90 -57 -95 -104 -5 -44 24 -105 66 -135 24 -18
80 -19 1164 -25 l1138 -5 37 24 c70 47 86 122 39 182 -46 58 -41 58 -553 62
-872 7 -1764 8 -1796 1z"/>
<path d="M4079 6166 c-19 -13 -48 -41 -63 -61 -26 -33 -30 -35 -45 -21 -42 38
-115 59 -219 64 -102 5 -103 4 -176 -32 -130 -64 -209 -155 -242 -280 -62
-231 92 -473 331 -517 163 -30 324 33 415 162 85 121 104 247 60 393 l-24 79
32 27 c56 47 82 90 82 136 0 33 -5 46 -22 58 -33 23 -88 20 -129 -8z m-246
-193 c26 -9 47 -20 47 -24 0 -3 -32 -45 -71 -93 l-71 -87 -39 36 c-50 45 -83
46 -109 3 -35 -58 -28 -77 59 -161 43 -42 87 -77 98 -77 10 0 66 48 127 109
61 61 113 108 118 105 4 -3 8 -27 8 -55 0 -127 -125 -249 -255 -249 -129 0
-255 121 -255 244 0 81 19 126 80 186 78 79 162 99 263 63z"/>
<path d="M4527 5866 c-49 -18 -67 -34 -83 -72 -18 -42 -3 -95 39 -140 l32 -35
1150 -1 c867 -1 1155 1 1172 10 34 18 63 67 63 104 0 45 -33 96 -73 112 -51
22 -220 26 -1272 31 -833 4 -996 3 -1028 -9z"/>
<path d="M3637 5156 c-93 -26 -224 -138 -271 -232 -164 -328 156 -680 513
-566 114 37 191 109 255 238 28 57 40 153 27 215 -30 144 -115 255 -243 318
-55 28 -81 34 -150 37 -51 2 -101 -1 -131 -10z m174 -167 c57 -19 96 -56 139
-129 45 -77 51 -126 25 -201 -19 -54 -56 -94 -115 -124 -83 -42 -111 -45 -184
-21 -117 40 -175 118 -176 235 0 81 25 136 87 191 65 57 146 75 224 49z"/>
<path d="M4765 4901 c-163 -4 -247 -10 -262 -18 -36 -21 -63 -64 -63 -100 0
-36 29 -101 54 -122 12 -10 258 -13 1176 -13 l1161 0 25 23 c13 12 29 40 36
60 15 52 -13 106 -69 135 -40 20 -58 21 -694 27 -360 4 -760 9 -889 11 -129 2
-343 1 -475 -3z"/>
<path d="M3639 4161 c-114 -36 -239 -144 -285 -245 -85 -185 4 -430 189 -521
134 -66 266 -69 393 -9 171 81 264 291 211 475 -19 66 -81 163 -127 202 -68
58 -221 118 -296 116 -16 0 -54 -8 -85 -18z m203 -185 c89 -43 137 -123 138
-228 0 -105 -27 -151 -120 -206 -39 -23 -56 -27 -125 -27 -74 0 -84 3 -133 34
-74 47 -102 98 -102 187 0 114 62 213 155 249 50 19 138 15 187 -9z"/>
<path d="M4678 3940 c-173 -6 -193 -12 -231 -78 -25 -42 -16 -80 32 -133 l37
-42 984 2 c542 0 1053 -3 1135 -8 171 -11 204 -3 238 56 27 47 25 86 -8 129
-39 51 -76 63 -217 69 -161 8 -1767 11 -1970 5z"/>
<path d="M4726 2521 c-4 -6 -2 -11 3 -11 6 0 11 -9 11 -21 0 -13 4 -18 12 -13
8 5 9 2 5 -9 -8 -20 6 -22 25 -4 7 7 25 12 40 12 15 -1 25 2 22 6 -2 4 6 11
17 14 20 7 21 8 5 17 -10 5 -20 7 -23 4 -4 -3 0 -6 8 -7 8 0 6 -4 -6 -8 -23
-9 -97 5 -106 21 -4 7 -9 7 -13 -1z"/>
<path d="M5124 2506 c0 -14 6 -22 14 -19 16 6 16 20 0 25 -7 3 7 5 32 6 25 1
52 -3 60 -8 13 -8 12 -11 -4 -23 -18 -13 -18 -14 9 -21 20 -5 25 -10 17 -18
-6 -6 -8 -17 -5 -26 5 -11 3 -13 -7 -7 -9 5 -11 4 -6 -3 12 -20 26 -13 26 13
0 17 6 25 18 26 11 0 8 4 -9 10 -20 7 -26 16 -25 35 1 16 6 23 16 21 8 -1 14
-12 13 -23 -2 -17 2 -20 21 -17 31 6 43 -15 20 -32 -16 -12 -17 -16 -5 -27 12
-11 13 -10 8 5 -5 14 -1 17 22 17 23 0 30 5 34 28 3 15 1 29 -4 30 -5 2 -9 8
-9 14 0 6 7 8 15 4 8 -3 25 -1 37 4 15 6 -30 9 -133 9 l-157 1 2 -24z m216 4
c-12 -8 -12 -11 3 -28 19 -21 22 -32 7 -32 -5 0 -10 6 -10 14 0 7 -7 19 -15
26 -22 18 -18 30 8 30 17 0 19 -2 7 -10z"/>
<path d="M5440 2520 c0 -5 5 -10 11 -10 5 0 8 -4 4 -9 -3 -5 -1 -12 5 -16 5
-3 9 -16 9 -28 -1 -20 -2 -20 -6 -3 -7 27 -28 46 -50 46 -14 0 -19 -8 -21 -31
-2 -29 -1 -31 25 -25 18 4 23 3 15 -2 -9 -6 6 -11 44 -16 56 -6 79 -2 58 12
-6 4 -10 23 -10 43 1 29 4 35 22 35 19 0 21 -3 10 -25 -8 -19 -8 -25 2 -29 15
-5 16 -42 1 -42 -5 0 -7 -5 -3 -11 4 -8 9 -7 16 2 7 11 11 11 15 2 2 -7 10
-13 16 -13 5 0 7 3 4 7 -4 3 1 12 11 20 15 13 15 13 -5 3 -19 -9 -23 -8 -23 5
0 9 9 15 25 15 20 0 25 5 25 24 0 13 -8 27 -17 31 -17 7 -16 8 2 15 12 5 -19
9 -82 9 -63 1 -103 -3 -103 -9z m154 -45 c-6 -16 -24 -21 -24 -7 0 11 11 22
21 22 5 0 6 -7 3 -15z"/>
<path d="M4350 2514 c0 -28 44 -42 63 -19 6 6 10 6 14 -3 2 -6 10 -9 16 -5 6
4 8 0 4 -10 -3 -9 -1 -17 5 -19 8 -3 8 -10 -1 -25 -7 -13 -7 -24 -2 -28 6 -3
8 -14 6 -25 -2 -12 0 -18 4 -15 5 3 7 21 4 41 -3 25 -2 34 6 30 6 -4 9 -11 7
-15 -3 -4 -1 -13 4 -20 13 -22 30 -2 30 37 1 33 2 35 14 20 20 -26 36 -22 35
10 0 15 -3 21 -6 15 -2 -7 -9 -13 -14 -13 -14 0 -11 28 4 33 7 2 8 8 3 13 -5
5 -11 4 -13 -3 -3 -7 -16 -13 -29 -13 -13 0 -24 6 -24 13 0 8 -4 7 -10 -3 -6
-9 -13 -11 -17 -5 -11 14 -43 18 -43 5 0 -6 -4 -9 -9 -6 -5 4 -11 0 -14 -6 -3
-9 -10 -7 -21 7 -8 11 -16 15 -16 9z m129 -53 c-15 -5 -22 6 -14 19 6 9 10 9
16 -1 5 -8 4 -15 -2 -18z m18 -53 c-3 -7 -5 -2 -5 12 0 14 2 19 5 13 2 -7 2
-19 0 -25z"/>
<path d="M4608 2513 c12 -2 30 -2 40 0 9 3 -1 5 -23 4 -22 0 -30 -2 -17 -4z"/>
<path d="M4895 2510 c3 -5 8 -10 11 -10 2 0 4 5 4 10 0 6 -5 10 -11 10 -5 0
-7 -4 -4 -10z"/>
<path d="M4916 2504 c-3 -9 -2 -23 4 -32 7 -14 9 -10 10 16 0 35 -5 41 -14 16z"/>
<path d="M4950 2491 c0 -25 3 -28 26 -23 l25 5 -22 23 c-28 30 -29 30 -29 -5z"/>
<path d="M5698 2513 c7 -3 16 -2 19 1 4 3 -2 6 -13 5 -11 0 -14 -3 -6 -6z"/>
<path d="M5770 2505 c0 -8 5 -15 10 -15 6 0 10 7 10 15 0 8 -4 15 -10 15 -5 0
-10 -7 -10 -15z"/>
<path d="M5175 2500 c-11 -5 -31 -18 -45 -29 -20 -17 -22 -21 -7 -21 9 0 17 5
17 11 0 6 9 9 20 6 13 -3 20 0 20 9 0 8 9 14 20 14 11 0 20 5 20 10 0 12 -18
12 -45 0z"/>
<path d="M5536 2493 c-6 -14 -5 -15 5 -6 7 7 10 15 7 18 -3 3 -9 -2 -12 -12z"/>
<path d="M4317 2481 c-4 -16 2 -21 25 -26 22 -5 26 -10 18 -20 -8 -10 -5 -14
14 -17 17 -4 23 -1 19 9 -3 8 2 13 16 13 12 0 21 5 21 10 0 6 -21 10 -47 10
-35 0 -44 3 -33 10 13 8 12 10 -3 10 -10 0 -15 5 -12 10 3 6 2 10 -3 10 -5 0
-12 -9 -15 -19z"/>
<path d="M4613 2493 c9 -2 25 -2 35 0 9 3 1 5 -18 5 -19 0 -27 -2 -17 -5z"/>
<path d="M5040 2490 c0 -5 15 -10 33 -10 24 0 28 3 17 10 -20 13 -50 13 -50 0z"/>
<path d="M5692 2475 c-18 -8 -31 -19 -28 -23 7 -12 56 -3 56 10 0 5 5 6 10 3
8 -5 7 -12 -2 -23 -11 -13 -11 -14 8 -4 12 6 26 7 35 1 19 -12 29 -11 29 1 0
6 -7 10 -15 10 -8 0 -24 9 -35 20 -11 11 -21 20 -22 20 -2 -1 -18 -7 -36 -15z"/>
<path d="M4208 2450 c-3 -20 0 -30 9 -30 7 0 13 5 13 10 0 16 27 12 34 -6 3
-8 10 -12 16 -9 6 4 8 11 5 16 -4 5 4 9 17 9 l23 1 -24 19 c-13 11 -38 20 -56
20 -29 0 -33 -4 -37 -30z"/>
<path d="M4607 2464 c2 -7 0 -15 -6 -18 -6 -4 -7 -14 -4 -22 3 -9 1 -19 -4
-23 -6 -3 -4 -13 7 -23 15 -17 16 -15 15 27 -1 25 1 45 5 45 5 0 10 6 13 13 3
7 -3 13 -13 13 -10 0 -16 -6 -13 -12z"/>
<path d="M4140 2460 c0 -5 7 -10 15 -10 8 0 15 5 15 10 0 6 -7 10 -15 10 -8 0
-15 -4 -15 -10z"/>
<path d="M5040 2460 c0 -5 10 -10 23 -10 18 0 19 2 7 10 -19 13 -30 13 -30 0z"/>
<path d="M4629 2439 c-8 -15 -8 -24 0 -32 8 -8 11 -6 11 7 0 15 5 17 31 12 26
-5 30 -3 25 10 -3 9 -6 18 -6 20 0 2 -11 4 -25 4 -14 0 -29 -8 -36 -21z"/>
<path d="M4710 2449 c0 -5 5 -7 10 -4 6 3 10 8 10 11 0 2 -4 4 -10 4 -5 0 -10
-5 -10 -11z"/>
<path d="M4790 2445 c0 -8 9 -10 25 -7 14 2 25 6 25 7 0 1 -11 5 -25 7 -16 3
-25 1 -25 -7z"/>
<path d="M4970 2425 c0 -14 5 -25 10 -25 6 0 10 11 10 25 0 14 -4 25 -10 25
-5 0 -10 -11 -10 -25z"/>
<path d="M5200 2440 c19 -13 30 -13 30 0 0 6 -10 10 -22 10 -19 0 -20 -2 -8
-10z"/>
<path d="M4111 2431 c-9 -6 -10 -11 -2 -15 6 -4 11 -2 11 4 0 6 5 8 10 5 6 -4
7 -11 4 -17 -4 -7 -2 -8 4 -4 16 10 15 36 0 36 -7 0 -19 -4 -27 -9z"/>
<path d="M4763 2424 c-8 -8 -9 -15 -3 -19 6 -3 10 0 10 7 0 9 3 9 10 -2 5 -8
10 -10 10 -5 0 23 -15 33 -27 19z"/>
<path d="M4925 2430 c3 -5 8 -10 11 -10 2 0 4 5 4 10 0 6 -5 10 -11 10 -5 0
-7 -4 -4 -10z"/>
<path d="M5040 2430 c0 -13 11 -13 30 0 12 8 11 10 -7 10 -13 0 -23 -4 -23
-10z"/>
<path d="M4410 2420 c0 -5 5 -10 10 -10 6 0 10 5 10 10 0 6 -4 10 -10 10 -5 0
-10 -4 -10 -10z"/>
<path d="M4530 2420 c0 -5 5 -10 10 -10 6 0 10 5 10 10 0 6 -4 10 -10 10 -5 0
-10 -4 -10 -10z"/>
<path d="M5360 2420 c0 -6 28 -9 68 -9 66 1 66 2 22 10 -63 11 -90 11 -90 -1z"/>
<path d="M4695 2404 c-13 -10 -15 -14 -4 -14 20 0 43 16 32 23 -4 3 -17 -1
-28 -9z"/>
<path d="M4840 2410 c0 -5 5 -10 10 -10 6 0 10 5 10 10 0 6 -4 10 -10 10 -5 0
-10 -4 -10 -10z"/>
<path d="M5293 2387 c14 -31 59 -32 63 -2 3 20 3 20 -12 1 -8 -11 -14 -14 -14
-7 0 7 -5 9 -10 6 -6 -3 -13 1 -16 9 -3 9 -10 16 -14 16 -5 0 -3 -11 3 -23z"/>
<path d="M5531 2397 c-1 -10 -5 -15 -11 -12 -5 3 -10 1 -10 -5 0 -12 28 -26
36 -18 2 3 0 16 -5 29 -7 18 -10 20 -10 6z"/>
<path d="M5471 2391 c-7 -5 -31 -6 -52 -4 -26 4 -39 2 -39 -6 0 -8 17 -11 50
-10 28 2 50 7 50 11 0 5 5 6 10 3 6 -3 10 -1 10 4 0 13 -10 14 -29 2z"/>
<path d="M4390 2380 c0 -5 7 -7 15 -4 8 4 15 8 15 10 0 2 -7 4 -15 4 -8 0 -15
-4 -15 -10z"/>
<path d="M4350 2360 c-8 -5 -12 -12 -9 -15 4 -3 12 1 19 10 14 17 11 19 -10 5z"/>
<path d="M5368 2343 c6 -2 18 -2 25 0 6 3 1 5 -13 5 -14 0 -19 -2 -12 -5z"/>
</g>
</svg>
