<?xml version="1.0" standalone="no"?>
<!DOCTYPE svg PUBLIC "-//W3C//DTD SVG 20010904//EN"
 "http://www.w3.org/TR/2001/REC-SVG-20010904/DTD/svg10.dtd">
<svg version="1.0" xmlns="http://www.w3.org/2000/svg"
 width="1024.000000pt" height="1024.000000pt" viewBox="0 0 1024.000000 1024.000000"
 preserveAspectRatio="xMidYMid meet">

<g transform="translate(0.000000,1024.000000) scale(0.100000,-0.100000)"
fill="#FFFFFF" stroke="none">
<path d="M5140 9555 c-123 -63 -160 -64 -450 -19 -128 19 -405 14 -515 -11
-171 -38 -305 -98 -433 -195 -94 -70 -126 -108 -175 -205 -73 -146 -85 -239
-68 -525 12 -203 24 -261 77 -356 18 -34 45 -94 60 -135 29 -80 81 -177 151
-277 l43 -63 -20 -29 c-42 -58 -98 -93 -382 -236 -313 -156 -458 -247 -581
-363 -106 -101 -236 -309 -287 -461 -25 -79 -50 -232 -50 -317 0 -79 7 -83
161 -94 140 -10 211 -21 394 -64 336 -80 777 -147 1203 -186 171 -15 643 -6
802 15 174 24 552 94 670 126 58 15 168 44 245 65 125 33 154 37 270 39 l129
1 10 27 c10 28 -18 225 -50 358 -20 85 -121 288 -184 371 -27 37 -107 125
-177 196 -127 128 -129 130 -283 210 -85 45 -223 111 -307 147 -158 67 -215
101 -271 158 l-32 34 28 45 c71 114 143 250 158 298 8 29 28 79 44 110 50 101
89 210 112 314 18 84 22 136 22 297 1 222 -3 242 -75 400 -44 96 -47 109 -39
145 17 73 12 153 -10 175 -49 49 -102 51 -190 5z m-550 -234 c25 -5 72 -16
105 -25 97 -26 240 -32 321 -12 38 9 73 17 78 17 6 0 16 -23 23 -52 7 -28 31
-89 53 -136 47 -102 60 -164 60 -300 l0 -104 -32 17 c-53 27 -137 114 -173
179 -19 33 -46 103 -60 156 -15 53 -37 113 -49 135 -20 36 -28 41 -101 61 -44
12 -100 22 -125 22 l-45 1 -34 -78 c-88 -198 -320 -331 -605 -348 -97 -5 -260
7 -274 21 -3 2 1 26 7 52 17 67 85 176 140 224 85 73 260 150 391 172 45 8
274 6 320 -2z m219 -478 c73 -145 138 -221 247 -289 82 -51 79 -44 63 -160
-31 -222 -154 -457 -297 -565 -87 -66 -175 -107 -272 -127 -142 -29 -289 9
-425 110 -111 83 -235 260 -294 424 -35 96 -62 264 -54 334 l6 50 126 0 c222
0 340 23 514 99 79 34 177 104 252 177 39 38 71 69 72 69 1 0 29 -55 62 -122z
m-705 -1288 c26 -19 69 -41 95 -49 191 -63 489 -39 621 48 l36 23 69 -45 c39
-25 138 -74 220 -109 203 -87 421 -193 532 -259 204 -121 353 -307 434 -543
26 -76 25 -97 -8 -109 -328 -119 -470 -159 -748 -211 -234 -44 -677 -77 -880
-66 -141 8 -564 50 -650 65 -33 6 -136 22 -230 36 -254 38 -585 112 -759 171
l-78 27 6 47 c15 108 54 187 157 314 74 92 129 140 249 221 108 71 416 233
561 293 113 47 159 72 218 120 50 40 81 60 96 61 6 0 32 -16 59 -35z"/>
<path d="M6865 9543 c-321 -32 -612 -237 -745 -526 -62 -137 -74 -194 -74
-352 0 -169 15 -237 85 -382 121 -252 326 -417 608 -489 93 -24 117 -26 220
-21 216 10 421 94 566 234 49 47 150 178 187 242 33 56 80 200 98 295 25 132
-4 323 -70 463 -118 253 -352 453 -598 513 -81 19 -209 30 -277 23z m258 -246
c113 -37 203 -94 289 -186 127 -135 178 -260 178 -441 0 -120 -19 -202 -74
-315 -75 -153 -186 -257 -346 -322 -173 -71 -362 -61 -548 30 -77 37 -195 136
-246 205 -130 178 -159 432 -75 657 58 156 284 343 471 391 83 21 255 12 351
-19z"/>
<path d="M6863 9066 c-27 -24 -28 -27 -33 -150 l-5 -127 -115 -2 c-129 -2
-153 -12 -171 -64 -14 -43 -4 -85 27 -114 23 -22 35 -24 144 -27 l118 -4 4
-125 c3 -123 3 -125 31 -149 41 -35 127 -34 162 1 24 23 25 30 25 145 l0 120
113 0 c129 0 154 9 181 64 16 32 17 44 7 77 -19 62 -45 73 -188 78 l-122 3 -3
126 -3 126 -34 23 c-46 31 -101 30 -138 -1z"/>
<path d="M2278 9234 c-47 -25 -52 -45 -53 -244 l-1 -185 -171 -3 -171 -2 -31
-29 c-26 -24 -31 -36 -31 -76 0 -25 7 -59 15 -74 24 -47 58 -54 233 -50 l157
4 -4 -167 c-3 -155 -2 -169 17 -201 26 -41 59 -57 117 -57 35 0 52 6 77 29
l33 29 0 182 0 182 170 -2 170 -1 27 28 c50 53 45 140 -10 184 -25 19 -37 20
-192 18 l-165 -3 -2 190 c-2 118 -7 197 -14 211 -25 47 -116 67 -171 37z"/>
<path d="M6870 7343 c-26 -24 -32 -39 -41 -108 -13 -95 -4 -126 43 -155 54
-33 102 -27 150 19 38 35 42 43 46 100 3 36 -1 73 -8 91 -33 80 -130 107 -190
53z"/>
<path d="M7324 7137 c-59 -51 -15 -127 74 -127 60 0 92 21 92 61 0 75 -106
117 -166 66z"/>
<path d="M6851 6809 c-70 -70 -11 -179 98 -179 36 0 49 6 78 35 31 31 35 40
30 72 -10 61 -65 103 -136 103 -31 0 -46 -7 -70 -31z"/>
<path d="M7328 6814 c-34 -18 -48 -43 -48 -87 0 -70 96 -120 163 -86 89 46 91
131 3 173 -42 20 -82 20 -118 0z"/>
<path d="M4530 5197 c-7 -7 -1042 -28 -1660 -32 -283 -3 -549 -7 -590 -10
-104 -9 -210 -47 -307 -111 -118 -79 -166 -131 -218 -238 -79 -163 -79 -158
-80 -701 -2 -537 4 -670 34 -765 51 -163 178 -309 335 -385 162 -79 143 -78
956 -67 393 6 718 8 722 6 4 -3 931 -5 2060 -5 2271 0 2097 -5 2235 65 100 50
167 104 229 186 81 108 106 162 124 274 14 91 15 1115 0 1195 -47 256 -197
439 -430 524 -50 18 -92 21 -430 28 -206 4 -692 8 -1080 8 -647 -1 -1428 11
-1760 27 -74 3 -137 4 -140 1z m3035 -782 c24 -23 25 -31 25 -137 0 -62 4
-119 9 -126 6 -10 34 -13 108 -11 115 4 144 -8 170 -69 19 -46 12 -93 -22
-144 -32 -49 -91 -76 -178 -85 l-64 -6 -6 -63 c-2 -35 -10 -71 -17 -79 -6 -7
-35 -19 -63 -25 -93 -21 -161 11 -197 94 -16 37 -25 44 -88 69 -82 33 -145 83
-172 138 -24 46 -25 70 -5 108 24 47 71 62 188 60 l102 -2 5 128 c5 124 6 127
33 151 23 20 39 24 88 24 50 0 64 -4 84 -25z m-3443 -30 c35 -33 43 -64 28
-111 -9 -27 -12 -115 -11 -306 l2 -268 -26 -26 c-33 -33 -80 -30 -107 7 -19
25 -19 35 -8 275 7 137 9 284 5 326 -6 76 -6 78 21 103 34 32 62 32 96 0z
m-1578 -26 c54 -15 119 -83 135 -141 25 -89 -12 -208 -80 -257 l-37 -28 59
-84 c104 -149 100 -141 85 -164 -7 -11 -30 -26 -52 -33 -34 -11 -41 -11 -64 6
-14 10 -53 65 -86 121 -34 56 -66 107 -71 112 -5 5 -29 6 -54 3 l-45 -6 4 -93
c4 -90 3 -95 -21 -119 -18 -18 -37 -26 -62 -26 -29 0 -39 6 -55 33 -19 30 -20
50 -20 302 0 149 5 288 10 310 15 68 33 75 184 75 72 0 148 -5 170 -11z m687
-9 c27 -15 27 -90 -1 -115 -17 -16 -127 -30 -263 -34 -16 -1 -18 -9 -15 -63
l3 -63 123 -1 c95 0 126 -4 133 -15 13 -21 11 -93 -3 -107 -8 -8 -53 -12 -135
-12 l-123 0 0 -70 0 -69 142 -3 143 -3 14 -29 c19 -40 5 -77 -39 -98 -28 -14
-61 -18 -163 -18 -145 0 -178 10 -218 63 -23 31 -24 37 -27 257 -4 266 0 300
38 343 27 31 29 31 146 38 194 10 224 10 245 -1z m544 -10 c68 -32 95 -65 95
-113 0 -69 -74 -92 -145 -44 -29 20 -52 27 -88 27 -95 0 -151 -43 -167 -130
-19 -101 16 -198 90 -248 31 -21 43 -23 95 -18 62 6 85 22 85 58 0 23 -30 38
-78 38 -45 0 -52 10 -52 70 0 58 17 65 133 63 66 -2 105 -7 113 -15 18 -18 23
-284 6 -315 -13 -24 -27 -30 -99 -42 -26 -5 -73 -14 -104 -21 -47 -10 -65 -10
-111 4 -30 8 -67 26 -83 38 -38 30 -122 161 -136 212 -17 62 -7 221 18 277 23
51 77 110 123 134 88 46 237 58 305 25z m885 7 c46 -23 91 -158 59 -178 -25
-16 -83 -9 -134 16 -69 34 -107 33 -139 -6 -28 -33 -34 -67 -13 -73 86 -25
176 -65 221 -99 30 -23 65 -49 76 -57 16 -11 22 -26 22 -60 4 -148 -103 -250
-261 -250 -169 0 -285 104 -203 183 35 33 42 33 88 2 33 -23 81 -32 134 -26
20 3 72 60 67 74 -2 7 -40 25 -84 42 -173 65 -219 115 -211 231 6 103 77 183
179 203 67 13 171 12 199 -2z m795 -20 c77 -77 54 -123 -66 -133 l-76 -7 2
-146 c2 -158 13 -216 52 -273 16 -24 23 -44 18 -57 -13 -41 -100 -65 -146 -41
-27 15 -55 76 -63 140 -4 30 -2 126 5 213 8 98 9 160 3 166 -5 5 -48 6 -95 4
l-87 -5 -11 -38 c-16 -55 -14 -255 5 -343 22 -107 3 -134 -87 -125 -55 5 -64
36 -61 211 2 121 -1 164 -19 237 -21 92 -37 117 -66 106 -37 -15 -48 75 -11
95 46 25 81 27 372 28 l298 1 33 -33z m539 2 c31 -36 33 -59 7 -90 -15 -19
-32 -24 -92 -30 -41 -4 -102 -8 -136 -8 l-63 -1 0 -60 0 -60 109 0 c94 0 112
-3 135 -21 31 -24 35 -72 9 -101 -14 -15 -32 -18 -135 -18 l-118 0 0 -65 0
-65 125 0 c120 0 127 -1 150 -25 33 -33 31 -65 -6 -101 l-30 -29 -144 0 c-163
0 -180 7 -219 81 -20 37 -21 53 -18 274 2 245 8 283 45 318 30 28 42 30 209
31 l146 1 26 -31z m529 -2 c133 -78 145 -262 23 -349 -25 -17 -46 -38 -46 -47
0 -21 48 -100 87 -144 19 -21 39 -50 46 -64 10 -23 8 -28 -16 -49 -33 -28 -77
-31 -112 -8 -13 9 -56 65 -95 125 -62 97 -73 109 -99 109 -27 0 -29 -3 -35
-52 -3 -29 -6 -76 -6 -105 0 -44 -4 -55 -26 -72 -42 -33 -86 -26 -108 18 -11
21 -12 89 -8 330 4 284 6 305 24 323 18 18 32 19 171 16 146 -3 154 -4 200
-31z"/>
<path d="M2330 4135 c0 -82 1 -85 25 -91 14 -4 51 -4 82 -2 70 6 103 37 103
98 0 60 -32 80 -131 80 l-79 0 0 -85z"/>
<path d="M6272 4133 l3 -78 32 -3 c71 -7 163 40 163 83 0 9 -13 30 -29 46 -27
27 -35 29 -101 29 l-71 0 3 -77z"/>
</g>
</svg>
